<?xml version="1.0" encoding="utf-8"?>

<svg version="1.1" id="Icons" xmlns="http://www.w3.org/2000/svg" xmlns:xlink="http://www.w3.org/1999/xlink" x="0px" y="0px"
	 viewBox="0 0 32 32" style="enable-background:new 0 0 32 32;" xml:space="preserve">
<g>
	<path d="M16,3.3c-2.1,0-4.1,0.5-6,1.3l1-2.3c0.2-0.5,0-1.1-0.5-1.3c-0.5-0.2-1.1,0-1.3,0.5L6.9,6.8C6.7,7.2,6.8,7.7,7.2,8
		c0.4,0.3,0.9,0.3,1.2,0c2.1-1.7,4.8-2.7,7.6-2.7c6.6,0,12,5.3,12,11.8S22.6,29,16,29S4,23.7,4,17.2c0-2.3,0.7-4.5,1.9-6.5
		c0.3-0.5,0.2-1.1-0.3-1.4C5.2,9,4.6,9.2,4.3,9.6C2.8,11.9,2,14.5,2,17.2C2,24.8,8.3,31,16,31s14-6.2,14-13.8
		C30,9.5,23.7,3.3,16,3.3z"/>
	<path d="M15.6,10.1l-5.9,3l6.4,2.8l6.4-2.8l-5.9-3C16.2,10,15.8,10,15.6,10.1z"/>
	<path d="M9,21c0,0.4,0.2,0.7,0.6,0.9l5.4,2.7v-7L9,15V21z"/>
	<path d="M22.4,21.9c0.3-0.2,0.6-0.5,0.6-0.9v-6l-6,2.7v7L22.4,21.9z"/>
</g>
</svg>
